<svg xmlns="http://www.w3.org/2000/svg" viewBox="0 0 500.62 499.88"><defs><style>.cls-1{fill:#fff;}.cls-2{fill:#244c7c;}.cls-3{fill:#cf382c;}</style></defs><g id="BACKGROUND"><rect class="cls-1" width="500.62" height="499.88"/></g><g id="OBJECTS"><polygon class="cls-2" points="380.02 312.42 214.37 312.42 214.37 237.22 228.58 237.22 228.58 298.21 380.02 298.21 380.02 312.42"/><rect class="cls-2" x="181.8" y="212.72" width="69.87" height="36.12" rx="4.2" transform="translate(-51.3 63.25) rotate(-14.85)"/><rect class="cls-2" x="114.74" y="155.63" width="176.64" height="76.99" rx="4.04" transform="translate(-48.21 69.71) rotate(-17.42)"/><path class="cls-2" d="M105.07,224.63a2.25,2.25,0,0,1-2.12-1.55L92.86,190.92a2.2,2.2,0,0,1,1.45-2.77l151.78-47.63a2.39,2.39,0,0,1,.66-.1,2.22,2.22,0,0,1,2.11,1.55L259,174.13a2.18,2.18,0,0,1-.15,1.68,2.22,2.22,0,0,1-1.3,1.09L105.72,224.53A2.38,2.38,0,0,1,105.07,224.63Z" transform="translate(0.6 0.01)"/><path class="cls-3" d="M246.75,140.92a1.74,1.74,0,0,1,1.64,1.2l10.08,32.16a1.7,1.7,0,0,1-1.12,2.14L105.57,224.05a1.69,1.69,0,0,1-.5.08,1.73,1.73,0,0,1-1.64-1.2L93.34,190.77a1.64,1.64,0,0,1,.12-1.3,1.69,1.69,0,0,1,1-.85L246.24,141a1.7,1.7,0,0,1,.51-.08m0-1a2.54,2.54,0,0,0-.81.13L94.16,187.67a2.73,2.73,0,0,0-1.78,3.4l10.09,32.16a2.73,2.73,0,0,0,2.6,1.9,2.53,2.53,0,0,0,.8-.13l151.78-47.62a2.72,2.72,0,0,0,1.78-3.4l-10.09-32.16a2.73,2.73,0,0,0-2.59-1.9Z" transform="translate(0.6 0.01)"/><path class="cls-2" d="M223.25,318.42a16.08,16.08,0,1,1,16.08-16.08A16.09,16.09,0,0,1,223.25,318.42Z" transform="translate(0.6 0.01)"/><path class="cls-3" d="M223.25,286.76a15.58,15.58,0,1,1-15.58,15.58,15.6,15.6,0,0,1,15.58-15.58m0-1a16.58,16.58,0,1,0,16.58,16.58,16.58,16.58,0,0,0-16.58-16.58Z" transform="translate(0.6 0.01)"/><path class="cls-2" d="M328.76,318.42a16.08,16.08,0,1,1,16.08-16.08A16.09,16.09,0,0,1,328.76,318.42Z" transform="translate(0.6 0.01)"/><path class="cls-3" d="M328.76,286.76a15.58,15.58,0,1,1-15.58,15.58,15.6,15.6,0,0,1,15.58-15.58m0-1a16.58,16.58,0,1,0,16.58,16.58,16.58,16.58,0,0,0-16.58-16.58Z" transform="translate(0.6 0.01)"/></g></svg>